<?xml version="1.0" encoding="utf-8"?>
<!-- Generator: Adobe Illustrator 16.0.0, SVG Export Plug-In . SVG Version: 6.00 Build 0)  -->
<!DOCTYPE svg PUBLIC "-//W3C//DTD SVG 1.1//EN" "http://www.w3.org/Graphics/SVG/1.1/DTD/svg11.dtd">
<svg version="1.1" id="Layer_1" xmlns="http://www.w3.org/2000/svg" xmlns:xlink="http://www.w3.org/1999/xlink" x="0px" y="0px"
	 width="196px" height="85px" viewBox="0 0 196 85" enable-background="new 0 0 196 85" xml:space="preserve">
<path fill="#FFFFFF" d="M196,85V55.164h-10.567V37.345l10.307-10.57v-8.319l-2.684-4.504h-2.947
	c-1.733-9.185-10.657-12.564-15.51-12.564c-4.849,0-13.774,3.726-15.681,12.564h-2.947l-2.684,4.504v8.319l10.31,10.57v17.819
	h-10.34V85H196z"/>
<path fill="#FDEC0A" d="M174.571,2.52c8.322,0,15.071,6.75,15.071,15.071c0,8.324-6.749,15.071-15.071,15.071
	c-8.321,0-15.071-6.747-15.071-15.071C159.5,9.269,166.25,2.52,174.571,2.52"/>
<circle fill="none" stroke="#010101" stroke-width="0.724" cx="174.571" cy="17.591" r="15.071"/>
<rect x="154.788" y="56.551" fill="#FDEC0A" width="39.797" height="26.979"/>
<path fill="#333333" d="M194.209,83.152h-39.047V56.925h39.047V83.152z M194.959,56.175h-40.547v27.728h40.547V56.175z"/>
<path fill="#333333" d="M156.667,73.465v-6.804h2.603c1.226,0,2.201,0.359,2.201,1.71c0,0.7-0.363,1.21-0.711,1.484
	c0.593,0.189,0.909,0.823,0.909,1.559c0,1.522-0.931,2.051-2.347,2.051H156.667z M158.452,70.621v1.256h0.78
	c0.438,0,0.771-0.111,0.771-0.623c0-0.595-0.414-0.633-0.982-0.633H158.452z M158.452,68.248v1.135h0.742
	c0.354,0,0.613-0.197,0.613-0.598c0-0.526-0.349-0.537-0.726-0.537H158.452z"/>
<rect x="162.583" y="66.661" fill="#333333" width="1.786" height="6.806"/>
<polygon fill="#333333" points="169.089,70.375 169.021,68.824 169.021,66.661 170.732,66.661 170.732,73.465 169.059,73.465 
	167.115,69.761 167.182,71.311 167.182,73.465 165.475,73.465 165.475,66.661 167.145,66.661 "/>
<path fill="#333333" d="M171.745,73.466V66.66h2.39c1.759,0,2.846,1.021,2.846,3.262c0,2.562-1.143,3.544-2.891,3.544H171.745z
	 M173.53,71.877h0.379c0.831,0,1.285-0.547,1.285-1.834c0-1.415-0.369-1.795-1.325-1.795h-0.339V71.877z"/>
<rect x="177.715" y="66.661" fill="#333333" width="1.784" height="6.806"/>
<polygon fill="#333333" points="184.221,70.375 184.153,68.824 184.153,66.661 185.864,66.661 185.864,73.465 184.19,73.465 
	182.246,69.761 182.313,71.311 182.313,73.465 180.604,73.465 180.604,66.661 182.276,66.661 "/>
<path fill="#333333" d="M192.181,73.484h-1.149l-0.07-0.67c-0.295,0.434-0.786,0.83-1.641,0.83c-1.394,0-2.642-1.125-2.642-3.496
	c0-2.175,1.088-3.668,2.853-3.668c1.31,0,2.361,0.852,2.582,2.525h-1.695c-0.131-0.559-0.455-0.861-0.916-0.861
	c-0.704,0-1.036,0.795-1.036,1.992c0,0.965,0.24,1.844,1.141,1.844c0.363,0,0.825-0.312,0.918-0.783h-0.79v-1.475h2.446V73.484z"/>
<polygon fill="#333333" points="164.81,36.988 154.342,26.382 154.378,18.723 156.561,14.807 161.083,14.807 158.156,20.144 
	158.156,24.268 167.374,33.557 167.998,32.898 158.918,23.743 161.794,21.218 174.148,33.938 174.148,55.164 164.81,55.164 "/>
<polygon fill="#333333" points="184.391,36.988 194.856,26.382 194.82,18.723 192.64,14.807 188.115,14.807 191.045,20.144 
	191.045,24.268 181.826,33.557 181.203,32.898 190.281,23.743 187.404,21.218 175.05,33.938 175.05,55.164 184.391,55.164 "/>
<path fill="#333333" d="M177.599,6.074l-0.771,1.24l-0.166,0.319l2.602,0.036c-0.452,1.176-1.18,2.286-1.63,3.5l4.573,7.278
	c-0.067,0.276-0.586,0.552-0.312,0.726h2.776c0.138,0.764,0.066,1.595,0.171,2.357l-0.9,0.902c-0.728-0.206-0.825,0.051-0.851,0.971
	c0.139,0.172,0.537,0.034,0.747,0.104l-2.185,2.182c-1.352,0.037-2.91,0.207-4.193-0.138h-8.596v-0.137l1.074-1.873
	c1.49-0.104,3.085-0.034,4.646-0.069c0.243-0.278,0.414-0.659,0.554-0.971c-1.178-0.173-2.53-0.069-3.777-0.104
	c-0.104-0.693-0.069-1.491-0.033-2.217l1.421-0.036l0.415-1.04l-1.213-0.068c0.139-0.486,0.555-0.969,0.832-1.456
	c0.761-0.069,1.715,0.034,2.442-0.104c0.174-0.345,0.814-0.657,0.33-1.073c-0.245-0.659-1.352-1.179-0.728-1.941
	c-0.799-0.173-1.742-0.069-2.608-0.104l0.008-0.103l0.693-1.804c-0.484-0.138-1.039-0.069-1.56-0.069
	c0.276-0.762,0.745-1.542,1.022-2.271l-0.711-0.052c0.798-1.385,1.664-2.773,2.565-4.125c1.144-0.033,2.34-0.033,3.447,0
	L177.599,6.074z"/>
<path fill="#333333" d="M171.602,15.292c-0.068,0.519-0.381,0.972-0.624,1.421l-0.797,0.069c-0.138,1.005,0.071,2.045,0.035,3.086
	l-1.388,2.356l-0.172,0.104h-4.748l-1.18-1.803c0.28-0.172,0.693-0.034,1.04-0.102l1.076-2.219c-0.416-0.174-0.972-0.07-1.492-0.103
	l-0.034-0.071l1.526-2.633c0.657-0.21,1.731,0.312,2.043-0.45c-0.069-0.174-0.276,0-0.379-0.141
	c0.274-0.519,0.553-1.109,0.934-1.559l2.669,0.036L171.602,15.292z"/>
<polygon fill="#333333" points="166.141,58.051 171.135,58.051 171.135,59.836 169.529,59.836 169.529,64.854 167.743,64.854 
	167.743,59.836 166.141,59.836 "/>
<polygon fill="#333333" points="171.891,64.854 171.891,58.053 173.677,58.053 173.677,60.348 175.365,60.348 175.365,58.053 
	177.151,58.053 177.151,64.854 175.365,64.854 175.365,62.219 173.677,62.219 173.677,64.854 "/>
<polygon fill="#333333" points="178.244,64.854 178.244,58.053 182.688,58.053 182.688,59.639 180.03,59.639 180.03,60.612 
	182.279,60.612 182.279,62.199 180.03,62.199 180.03,63.27 182.795,63.27 182.795,64.854 "/>
<path fill="#333333" d="M168.22,77.134c-0.03-0.237-0.126-0.377-0.257-0.462c-0.128-0.086-0.286-0.123-0.46-0.123
	c-0.394,0-0.568,0.141-0.568,0.388c0,1.021,3.134,0.386,3.134,2.862c0,1.579-1.054,2.345-2.552,2.345
	c-1.438,0-2.376-1.048-2.414-2.278h1.712c0.035,0.245,0.143,0.424,0.295,0.539c0.144,0.114,0.33,0.17,0.507,0.17
	c0.446,0,0.741-0.18,0.741-0.502c0-1.027-3.134-0.319-3.134-2.918c0-1.447,1-2.177,2.362-2.177c1.512,0,2.201,0.967,2.329,2.156
	H168.22z"/>
<rect x="170.891" y="75.159" fill="#333333" width="1.788" height="6.806"/>
<polygon fill="#333333" points="173.493,75.159 178.489,75.159 178.489,76.945 176.885,76.945 176.885,81.965 175.099,81.965 
	175.099,76.945 173.493,76.945 "/>
<polygon fill="#333333" points="179.298,81.965 179.298,75.158 183.74,75.158 183.74,76.748 181.082,76.748 181.082,77.721 
	183.331,77.721 183.331,79.31 181.082,79.31 181.082,80.377 183.846,80.377 183.846,81.965 "/>
<path fill="#333333" d="M2.729,16.344c0-4.996-0.091-8.431-0.357-12.355c0.981,0.089,2.186,0.223,3.657,0.223
	c2.543,0,5.486-0.223,8.028-0.223c5.352,0,9.01,2.051,9.01,6.914c0,4.861-4.505,6.912-7.271,7.359v0.089
	c2.723,0.132,8.03,2.098,8.03,7.493c0,6.378-5.086,8.921-10.392,8.921c-2.365,0-4.327-0.225-6.558-0.225
	c-1.607,0-3.523,0.136-4.504,0.225c0.267-3.925,0.357-7.359,0.357-12.354V16.344z M11.692,6.531c-1.293,0-1.605,0.044-2.185,0.132
	c-0.089,2.188-0.178,4.685-0.178,6.202c0,1.606,0.043,3.034,0.043,4.549h2.01c2.54,0,5.083-1.874,5.083-5.666
	C16.465,8.894,15.217,6.531,11.692,6.531 M11.292,19.956C10.488,19.956,9.909,20,9.372,20c0,1.248-0.043,2.497-0.043,4.327
	c0,2.809,0.089,6.245,0.089,7.805c0.803,0.046,1.472,0.089,2.453,0.089c2.632,0,4.906-2.185,4.906-6.065
	C16.777,22.007,14.86,19.956,11.292,19.956"/>
<path fill="#333333" d="M32.211,1.223c1.962,0,3.522,1.561,3.522,3.523c0,1.961-1.561,3.523-3.522,3.523
	c-1.963,0-3.524-1.562-3.524-3.523C28.687,2.784,30.248,1.223,32.211,1.223 M29.222,23.079c0-3.612-0.089-6.781-0.357-9.901
	c0.803,0.089,1.964,0.223,3.346,0.223c1.383,0,2.585-0.134,3.345-0.223c-0.268,3.121-0.357,6.289-0.357,9.901v1.784
	c0,3.613,0.089,6.781,0.357,9.901c-0.76-0.089-1.962-0.222-3.345-0.222c-1.382,0-2.543,0.133-3.346,0.222
	c0.268-3.121,0.357-6.289,0.357-9.901V23.079z"/>
<path fill="#333333" d="M47.019,16.521h0.089c1.65-2.407,3.926-3.925,6.735-3.925c4.461,0,6.958,2.499,6.958,8.207
	c0,3.035-0.178,5.174-0.178,7.495c0,1.872,0.135,4.191,0.223,6.467c-0.758-0.134-2.052-0.224-3.345-0.224
	c-1.293,0-2.586,0.09-3.344,0.224c0.4-3.21,0.489-7.494,0.489-12.801c0-3.703-1.338-5.443-3.657-5.443
	c-2.677,0-3.881,2.455-3.881,6.556v1.786c0,3.613,0.089,6.779,0.357,9.902c-0.758-0.091-1.962-0.224-3.346-0.224
	c-1.381,0-2.542,0.133-3.344,0.224c0.267-3.123,0.356-6.289,0.356-9.902v-1.786c0-3.612-0.089-6.778-0.356-9.9
	c1.07,0.088,2.097,0.223,3.167,0.223c1.069,0,2.096-0.134,3.255-0.223L47.019,16.521z"/>
<path fill="#333333" d="M85.289,19.332c0,5.844,0.134,10.394,0.357,15.433c-0.758-0.134-2.051-0.222-3.346-0.222
	c-1.204,0-2.408,0.088-2.988,0.222c0.134-0.401,0.357-3.255,0.357-3.658l-0.089-0.088c-1.115,2.588-2.945,4.327-6.378,4.327
	c-6.022,0-8.519-5.265-8.519-11.598c0-6.377,3.79-11.15,8.608-11.15c2.586,0,4.907,1.427,5.932,3.301h0.089
	c0-5.308-0.135-9.858-0.358-14.898c0.76,0.135,2.053,0.223,3.346,0.223c1.295,0,2.588-0.088,3.346-0.223
	c-0.223,5.04-0.357,9.59-0.357,15.432V19.332z M75.119,32.58c2.408,0,4.193-2.542,4.193-8.966c0-5.532-1.651-7.939-3.97-7.939
	c-1.873,0-4.058,1.919-4.058,8.744C71.284,30.483,73.11,32.58,75.119,32.58"/>
<path fill="#333333" d="M94.21,1.223c1.962,0,3.523,1.561,3.523,3.523c0,1.961-1.561,3.523-3.523,3.523
	c-1.963,0-3.524-1.562-3.524-3.523C90.686,2.784,92.247,1.223,94.21,1.223 M91.221,23.079c0-3.612-0.089-6.781-0.357-9.901
	c0.803,0.089,1.964,0.223,3.346,0.223c1.381,0,2.587-0.134,3.345-0.223c-0.268,3.121-0.356,6.289-0.356,9.901v1.784
	c0,3.613,0.089,6.781,0.356,9.901c-0.758-0.089-1.964-0.222-3.345-0.222c-1.382,0-2.543,0.133-3.346,0.222
	c0.268-3.121,0.357-6.289,0.357-9.901V23.079z"/>
<path fill="#333333" d="M109.018,16.521h0.089c1.649-2.407,3.926-3.925,6.735-3.925c4.461,0,6.957,2.499,6.957,8.207
	c0,3.035-0.178,5.174-0.178,7.495c0,1.872,0.135,4.191,0.223,6.467c-0.758-0.134-2.052-0.224-3.343-0.224
	c-1.295,0-2.588,0.09-3.346,0.224c0.399-3.21,0.489-7.494,0.489-12.801c0-3.703-1.338-5.443-3.657-5.443
	c-2.677,0-3.881,2.455-3.881,6.556v1.786c0,3.613,0.089,6.779,0.356,9.902c-0.758-0.091-1.962-0.224-3.344-0.224
	c-1.383,0-2.542,0.133-3.346,0.224c0.267-3.123,0.357-6.289,0.357-9.902v-1.786c0-3.612-0.091-6.778-0.357-9.9
	c1.07,0.088,2.097,0.223,3.167,0.223c1.071,0,2.096-0.134,3.255-0.223L109.018,16.521z"/>
<path fill="#333333" d="M142.871,14.783l-0.132,0.089c1.472,1.071,2.408,2.721,2.408,4.951c0,4.416-3.524,7.405-8.653,7.405
	c-0.623,0-1.25-0.045-2.008-0.045c-0.712,0-1.293,0.758-1.293,1.605c0,1.427,1.07,2.32,3.434,2.365l3.302,0.042
	c4.905,0.046,7.27,1.83,7.27,5.889c0,7.093-6.512,9.547-11.773,9.547c-5.531,0-8.877-2.454-8.877-5.932
	c0-2.812,1.784-4.551,4.37-5.532v-0.09c-1.517-0.667-2.541-1.782-2.541-3.435c0-1.962,1.693-4.059,4.147-4.727v-0.089
	c-1.784-0.446-3.212-1.247-4.192-2.408c-0.981-1.16-1.519-2.72-1.519-4.638c0-4.551,3.838-7.181,9.456-7.181
	c1.071,0,2.232,0.134,3.302,0.178c0.759,0.045,1.56,0.088,2.497,0.088c1.473,0,3.123-0.042,4.73-0.042
	c-0.047,0.356-0.092,0.714-0.092,1.07c0,0.357,0.045,0.713,0.092,1.072L142.871,14.783z M135.557,35.345
	c-1.561,0-2.54,0.134-3.212,0.446c-0.714,0.357-1.739,1.784-1.739,3.88c0,3.39,2.677,5.13,5.845,5.13
	c3.434,0,5.575-2.453,5.575-5.307C142.025,36.015,139.571,35.345,135.557,35.345 M133.06,20.312c0,3.882,1.562,5.266,2.942,5.266
	c1.963,0,2.9-1.653,2.9-5.666c0-4.016-1.204-5.487-2.809-5.487C134.041,14.425,133.06,16.389,133.06,20.312"/>
<path fill="#333333" d="M94.956,59.103c-0.938-2.542-2.677-3.835-5.397-3.835c-2.72,0-4.639,1.873-4.639,4.014
	c0,6.604,13.559,4.951,13.559,15.076c0,5.978-4.727,10.082-11.818,10.082c-3.212,0-5.89-0.939-7.183-1.92
	c0.581-2.051,0.981-3.658,1.293-5.665h0.85c0.489,2.589,2.542,4.818,6.155,4.818c3.478,0,5.219-2.052,5.219-4.55
	c0-6.734-13.293-4.951-13.293-15.074c0-6.158,4.728-9.547,10.036-9.547c3.211,0,5.62,0.848,7.315,2.185
	c-0.535,1.384-0.846,2.454-1.427,4.416H94.956z"/>
<path fill="#333333" d="M106.329,50.316c1.963,0,3.524,1.559,3.524,3.523c0,1.963-1.562,3.523-3.524,3.523
	c-1.962,0-3.522-1.561-3.522-3.523C102.807,51.875,104.367,50.316,106.329,50.316 M103.342,72.172c0-3.613-0.09-6.779-0.357-9.903
	c0.803,0.092,1.962,0.224,3.345,0.224c1.384,0,2.588-0.132,3.347-0.224c-0.269,3.124-0.357,6.29-0.357,9.903v1.782
	c0,3.614,0.089,6.78,0.357,9.903c-0.759-0.09-1.963-0.223-3.347-0.223c-1.383,0-2.542,0.133-3.345,0.223
	c0.268-3.123,0.357-6.289,0.357-9.903V72.172z"/>
<path fill="#333333" d="M126.625,62.492c-0.09,0.447-0.133,0.803-0.133,1.205c0,0.357,0.043,0.757,0.133,1.114l-3.926-0.089
	c-0.178,2.676-0.312,7.537-0.312,9.947c0,6.199,0.446,7.226,2.497,7.226c1.115,0,1.518-0.133,2.053-0.444v1.827
	c-1.161,0.712-3.168,1.159-4.861,1.159c-3.703,0-5.666-2.409-5.666-6.914c0-3.432,0.312-9.008,0.312-12.756l-3.121,0.044
	c0.089-0.357,0.132-0.757,0.132-1.114c0-0.402-0.043-0.758-0.132-1.205l3.121,0.133c0-1.871-0.046-3.209-0.178-5.484
	c2.051-0.847,4.104-1.785,6.11-2.765l0.445,0.312c-0.224,1.918-0.401,5.217-0.401,7.896L126.625,62.492z"/>
<path fill="#333333" d="M135.455,73.064c0,4.816,1.873,8.475,5.978,8.475c2.051,0,3.881-0.67,5.485-2.006l0.537,0.398l-0.981,2.5
	c-1.472,1.115-3.435,2.006-6.78,2.006c-5.8,0-10.841-3.48-10.841-11.285c0-7.716,4.372-11.463,10.347-11.463
	c5.803,0,9.103,3.702,9.103,9.904c0,0.756,0,1.159-0.045,1.471H135.455z M142.324,71.057c-0.091-4.459-0.98-7.36-3.301-7.36
	c-2.631,0-3.48,3.884-3.568,7.36H142.324z"/>
</svg>
