<svg id="Layer_1" data-name="Layer 1" xmlns="http://www.w3.org/2000/svg" viewBox="0 0 268.37 268.37">
  <title>facebook</title>
  <g id="Layer_1-2" data-name="Layer 1-2">
    <path d="M954.27,1049.29h9.2V1105a2.28,2.28,0,0,0,2.25,2.25h24.07A2.28,2.28,0,0,0,992,1105v-55.66h14a2.28,2.28,0,0,0,2.25-2l2.13-20.46a2.24,2.24,0,0,0-2-2.45H992v-9.78a4.51,4.51,0,0,1,.32-1.86,2.17,2.17,0,0,1,1.35-1.23,4,4,0,0,1,1.16-.19h12.93a2.28,2.28,0,0,0,2.26-2.25V989.26a2.28,2.28,0,0,0-2.26-2.25L990,987h0a29.73,29.73,0,0,0-13.12,2.7,21.46,21.46,0,0,0-6.63,4.82,24.78,24.78,0,0,0-5.41,9.53,31.6,31.6,0,0,0-1.41,9.45v11h-9.2a2.28,2.28,0,0,0-2.25,2.25v20.46a2.32,2.32,0,0,0,2.31,2.12Z" transform="translate(-847.14 -912.63)" fill="#223455"/>
    <path d="M981.17,1181a134.21,134.21,0,0,0,134.34-134c.13-74.12-60-134.22-134-134.35a134.19,134.19,0,0,0-.32,268.37Zm0-254.6a120.69,120.69,0,1,1-85.26,35.32,120.77,120.77,0,0,1,85.26-35.32Z" transform="translate(-847.14 -912.63)" fill="#223455"/>
  </g>
</svg>