<svg id="Layer_1" data-name="Layer 1" xmlns="http://www.w3.org/2000/svg" viewBox="0 0 71.41 71.41">
  <title>instagram</title>
  <g>
    <g id="Background">
      <path d="M1105.86,1024.41A35.72,35.72,0,1,0,1073,1074h0a35.71,35.71,0,0,0,32.9-49.6Zm-32.9,46.28h0a32.39,32.39,0,1,1,32.38-32.38A32.13,32.13,0,0,1,1073,1070.69Z" transform="translate(-1037.26 -1002.6)" fill="#fff"/>
    </g>
    <g id="Instagram">
      <circle cx="45.94" cy="25.42" r="2.31" fill="#fff"/>
      <path d="M1073,1048.34a10,10,0,1,1,10-10A10,10,0,0,1,1073,1048.34Zm0-16.93a6.9,6.9,0,1,0,6.9,6.9A6.9,6.9,0,0,0,1073,1031.41Z" transform="translate(-1037.26 -1002.6)" fill="#fff"/>
      <path d="M1079.36,1058.39h-12.79a13.08,13.08,0,0,1-13.07-13.07v-14a13.09,13.09,0,0,1,13.07-13.08h12.79a13.1,13.1,0,0,1,13.07,13.08v14A13.09,13.09,0,0,1,1079.36,1058.39Zm-12.79-37a9.94,9.94,0,0,0-9.93,9.94v14a9.94,9.94,0,0,0,9.93,9.93h12.79a9.94,9.94,0,0,0,9.93-9.93v-14a10,10,0,0,0-9.93-9.94Z" transform="translate(-1037.26 -1002.6)" fill="#fff"/>
    </g>
  </g>
</svg>
