<svg id="Layer_1" data-name="Layer 1" xmlns="http://www.w3.org/2000/svg" viewBox="0 0 454.35 454.35">
  <title>linkedin</title>
  <g id="Layer_1-2" data-name="Layer 1-2">
    <path d="M882.85,920.84H844.62a3.85,3.85,0,0,0-3.81,3.81v115a3.86,3.86,0,0,0,3.81,3.82h38.23a3.87,3.87,0,0,0,3.82-3.82v-115a3.79,3.79,0,0,0-3.82-3.81Z" transform="translate(-698.65 -733.05)" fill="#223455"/>
    <path d="M863.57,912.78h.22c7.52,0,13.94-2.5,18.41-6.86a22.88,22.88,0,0,0,7-16.89v-.1a24.6,24.6,0,0,0-1.85-9.26,22.31,22.31,0,0,0-8.82-10.46A27,27,0,0,0,864,865.29c-7.41,0-13.84,2.5-18.3,6.75a23.19,23.19,0,0,0-7.08,17,22.6,22.6,0,0,0,7,16.78A24.9,24.9,0,0,0,863.57,912.78Z" transform="translate(-698.65 -733.05)" fill="#223455"/>
    <path d="M900.28,1032v7.84a3.8,3.8,0,0,0,3.81,3.82h38.24a3.86,3.86,0,0,0,3.81-3.82V975.52c0-1.52.11-3,.22-4.57a12.11,12.11,0,0,1,.76-3.27h0a19.33,19.33,0,0,1,5.78-8.06,16.39,16.39,0,0,1,4.46-2.61,17.36,17.36,0,0,1,5.88-1,15,15,0,0,1,7.19,1.52,10.28,10.28,0,0,1,3.6,2.83,17.93,17.93,0,0,1,3.59,7.19,39.54,39.54,0,0,1,1.2,10.79v61.54a3.86,3.86,0,0,0,3.81,3.82h38.24a3.86,3.86,0,0,0,3.81-3.82v-66a76.22,76.22,0,0,0-3.59-24.18c-3.49-10.46-9.48-18.41-17.22-23.64s-17.1-7.73-27.12-7.73a49.28,49.28,0,0,0-14.38,2.07,39.18,39.18,0,0,0-14.92,8.49c-.44.44-1,.87-1.42,1.31v-5.34a3.85,3.85,0,0,0-3.81-3.81H903.88a3.86,3.86,0,0,0-3.82,3.81v.22c0,.76.11,2.29.11,4.36.11,6.21.11,17.32.11,30.06,0,17-.11,37.15-.11,52.94C900.28,1020.19,900.28,1027.05,900.28,1032Z" transform="translate(-698.65 -733.05)" fill="#223455"/>
    <path d="M925.55,1187.39C1051,1187.5,1152.78,1086,1153,960.49S1051.48,733.26,926.1,733.05,698.76,834.57,698.65,960a227.23,227.23,0,0,0,226.9,227.44Zm0-431c112.86-.11,204.47,91.39,204.57,204.24s-91.39,204.46-204.24,204.57-204.46-91.39-204.57-204.24A204.36,204.36,0,0,1,925.55,756.36Z" transform="translate(-698.65 -733.05)" fill="#223455"/>
  </g>
</svg>