<?xml version="1.0" encoding="utf-8"?>
<!-- Generator: Adobe Illustrator 24.3.0, SVG Export Plug-In . SVG Version: 6.00 Build 0)  -->
<svg version="1.1" id="Layer_1" xmlns="http://www.w3.org/2000/svg" xmlns:xlink="http://www.w3.org/1999/xlink" x="0px" y="0px"
	 viewBox="0 0 250 100" style="enable-background:new 0 0 250 100;" xml:space="preserve">
<style type="text/css">
	.st0{enable-background:new    ;}
	.st1{fill:#FFFFFF;}
</style>
<g>
	<g class="st0">
		<path class="st1" d="M87.42,41.53c0-0.45,0.22-0.67,0.67-0.67c0.45,0,0.67,0.22,0.67,0.67v17.17c0,0.45-0.22,0.67-0.67,0.67
			c-0.45,0-0.67-0.22-0.67-0.67V41.53z"/>
		<path class="st1" d="M92.77,41.53c0-0.45,0.22-0.67,0.67-0.67h0.22c0.22,0,0.45,0.22,0.67,0.45l12.27,15.61V41.53
			c0-0.45,0.22-0.67,0.67-0.67c0.45,0,0.67,0.22,0.67,0.67v17.4c0,0.22-0.22,0.67-0.45,0.67l0,0c-0.22,0-0.45-0.22-0.67-0.45
			L94.11,43.1v15.84c0,0.45-0.22,0.67-0.67,0.67c-0.45,0-0.67-0.22-0.67-0.67C92.77,58.93,92.77,41.53,92.77,41.53z"/>
		<path class="st1" d="M111.95,41.76c0-0.45,0.22-0.67,0.67-0.67h11.82c0.45,0,0.67,0.22,0.67,0.67c0,0.45-0.22,0.67-0.67,0.67
			h-10.93v7.58h9.81c0.45,0,0.67,0.22,0.67,0.67s-0.22,0.67-0.67,0.67h-9.81v7.81c0,0.45-0.22,0.67-0.67,0.67s-0.67-0.22-0.67-0.67
			v-17.4H111.95z"/>
		<path class="st1" d="M127.79,41.53c0-0.45,0.22-0.67,0.67-0.67s0.67,0.22,0.67,0.67v17.17c0,0.45-0.22,0.67-0.67,0.67
			s-0.67-0.22-0.67-0.67V41.53z"/>
		<path class="st1" d="M133.14,41.53c0-0.45,0.22-0.67,0.67-0.67h0.22c0.22,0,0.45,0.22,0.67,0.45l12.27,15.61V41.53
			c0-0.45,0.22-0.67,0.67-0.67c0.45,0,0.67,0.22,0.67,0.67v17.4c0,0.22-0.22,0.67-0.45,0.67l0,0c-0.22,0-0.45-0.22-0.67-0.45
			L134.48,43.1v15.84c0,0.45-0.22,0.67-0.67,0.67c-0.45,0-0.67-0.22-0.67-0.67C133.14,58.93,133.14,41.53,133.14,41.53z"/>
		<path class="st1" d="M152.55,41.53c0-0.45,0.22-0.67,0.67-0.67c0.45,0,0.67,0.22,0.67,0.67v17.17c0,0.45-0.22,0.67-0.67,0.67
			c-0.45,0-0.67-0.22-0.67-0.67V41.53z"/>
	</g>
	<g class="st0">
		<path class="st1" d="M157.23,41.76c0-0.45,0.22-0.67,0.67-0.67h5.35c5.8,0,9.81,4.01,9.81,9.14l0,0c0,5.13-4.01,9.14-9.81,9.14
			h-5.35c-0.45,0-0.67-0.22-0.67-0.67C157.23,58.71,157.23,41.76,157.23,41.76z M163.47,58.04c5.13,0,8.25-3.57,8.25-7.81l0,0
			c0-4.46-3.12-7.81-8.25-7.81h-4.68v15.84h4.68V58.04z"/>
	</g>
	<g class="st0">
		<path class="st1" d="M173.73,58.48l7.81-16.95c0.22-0.45,0.45-0.67,0.89-0.67l0,0c0.45,0,0.67,0.22,0.89,0.67l7.81,16.95
			c0,0.22,0,0.22,0,0.45c0,0.45-0.22,0.67-0.67,0.67c-0.22,0-0.45-0.22-0.67-0.45l-2.23-4.68h-10.93l-2.23,4.68
			c-0.22,0.22-0.45,0.45-0.67,0.45c-0.45,0-0.67-0.22-0.67-0.67C173.73,58.71,173.73,58.48,173.73,58.48z M187.34,52.91l-4.91-10.71
			l-4.91,10.71H187.34z"/>
		<path class="st1" d="M194.03,41.76c0-0.45,0.22-0.67,0.67-0.67h5.35c5.8,0,9.81,4.01,9.81,9.14l0,0c0,5.13-4.01,9.14-9.81,9.14
			h-5.35c-0.45,0-0.67-0.22-0.67-0.67V41.76z M200.05,58.04c5.13,0,8.25-3.57,8.25-7.81l0,0c0-4.46-3.12-7.81-8.25-7.81h-4.68v15.84
			h4.68V58.04z"/>
	</g>
	<path class="st1" d="M57.31,47.56l-0.89-0.67l-2.23-2.01c-1.12-0.89-2.45-1.34-4.01-1.56c-0.89,0-1.78,0-2.45,0.22
		c-2.9,0.89-4.68,3.57-4.68,6.69c0,0.22,0,0.22,0,0.45v0.45l0.22,0.67l0.22,0.45v0.22v0.22v0.22v0.22l0.22,0.22
		c0.22,0.45,0.67,0.89,1.12,1.12c0.45,0.45,0.89,0.67,1.34,0.89l0.45,0.22h0.22h0.22l0.45,0.22h0.45c0.45,0,1.12,0,1.56,0
		c1.12,0,2.01-0.45,2.9-1.12c0.22-0.22,0.45-0.45,0.67-0.45l0.67-0.89l1.56-1.56l3.12-3.12l2.9-3.35l1.56-1.56l0.89-0.89
		c0.45-0.22,0.67-0.67,1.12-0.89c0.67-0.45,1.56-0.89,2.45-1.34c0.89-0.22,1.78-0.45,2.68-0.45c3.57-0.22,6.91,1.56,8.48,4.68
		c0.89,1.34,1.12,2.9,1.12,4.46s-0.45,2.9-1.12,4.24c-0.45,0.67-0.67,1.12-1.12,1.78c-0.22,0.22-0.45,0.45-0.67,0.67
		c-0.22,0.22-0.45,0.45-0.89,0.67c-1.12,0.67-2.23,1.12-3.35,1.34c-1.12,0.22-2.23,0.22-3.12,0s-1.78-0.45-2.45-0.89
		s-1.34-0.89-1.78-1.56L64,54.25l-0.45-0.45l-0.67-0.89l0.89,0.67l2.23,2.01c1.12,0.89,2.45,1.34,4.01,1.56
		c1.78,0.22,3.57-0.45,4.91-1.78c0.22-0.22,0.45-0.22,0.45-0.45c0.22-0.22,0.22-0.45,0.45-0.45c0.22-0.45,0.45-0.89,0.67-1.34
		c0.45-0.89,0.67-2.01,0.45-2.9c0-1.12-0.45-2.01-0.89-2.9c-0.67-0.89-1.34-1.56-2.23-2.01s-2.01-0.67-3.12-0.67
		c-0.45,0-1.12,0.22-1.56,0.45c-0.45,0.22-0.89,0.45-1.34,0.67c-0.22,0.22-0.45,0.45-0.67,0.45l-0.67,0.89l-1.56,1.56l-3.12,3.12
		l-3.35,2.9l-1.56,1.56l-0.89,0.67c-0.45,0.22-0.67,0.67-1.12,0.89c-0.45,0.22-0.67,0.45-1.12,0.67l-0.67,0.22h-0.22h-0.22
		l-0.22,0.45c-0.89,0.22-1.78,0.45-2.68,0.45s-1.78,0-2.68-0.22l-0.67-0.22c-0.22,0-0.45,0-0.45,0l-0.22-0.22l-0.22-0.22l-0.67-0.22
		c-0.67-0.45-1.34-0.89-2.01-1.56s-1.12-1.34-1.56-2.01c0-0.22-0.22-0.45-0.22-0.45v-0.22l-0.22-0.22V53.8c0,0,0-0.22-0.22-0.22
		c0-0.22-0.22-0.45-0.22-0.67c0-0.45-0.22-0.67-0.22-1.12c0-0.22,0-0.45,0-0.67c0-0.22,0-0.45,0-0.67c0-1.56,0.22-2.9,0.89-4.24
		c1.34-2.23,3.35-4.01,6.02-4.46c1.12-0.22,2.23-0.22,3.12,0c0.89,0.22,1.78,0.45,2.45,0.89c0.67,0.45,1.34,0.89,1.78,1.56
		l1.12,1.34l0.89,0.89L57.31,47.56z"/>
</g>
</svg>
