<svg id="Layer_1" data-name="Layer 1" xmlns="http://www.w3.org/2000/svg" viewBox="0 0 184.49 184.49">
  <title>whatsapp</title>
  <g id="Layer_1-2" data-name="Layer 1-2">
    <path d="M1311.84,918.13c.36.62.67,1,.75,1.19l.14.23c.26.44.84,1.37,1.68,2.52a47.33,47.33,0,0,0,5.48,6.45,31.19,31.19,0,0,0,8.85,6.11,67.48,67.48,0,0,0,6.46,2.52,17.22,17.22,0,0,0,1.94.49,8.08,8.08,0,0,0,1.46.13,6.59,6.59,0,0,0,1.33-.13l.66-.14a3.69,3.69,0,0,0,1-.17,11.67,11.67,0,0,0,1.86-.67,12.31,12.31,0,0,0,2.83-1.72,16.88,16.88,0,0,0,1.24-1.15,6.17,6.17,0,0,0,.88-1.46h0a13.82,13.82,0,0,0,.71-2.39,9.47,9.47,0,0,0,.22-1.9,3.82,3.82,0,0,0,0-.67,1.13,1.13,0,0,0-.09-.35,2,2,0,0,0-.18-.44,2.21,2.21,0,0,0-.57-.71,5.86,5.86,0,0,0-.89-.57l-.88-.49-.75,1.37.75-1.37c-.49-.27-1.82-1-3.19-1.73-.66-.35-1.37-.7-1.94-1l-.76-.4c-.22-.09-.39-.18-.57-.27l-.71-.26a3.31,3.31,0,0,0-.93-.13,2.68,2.68,0,0,0-1.32.35,3.25,3.25,0,0,0-1,.93h0c-.13.18-.35.44-.62.75-.8.93-1.9,2.12-2.34,2.61a.62.62,0,0,1-.23-.09h0a3.74,3.74,0,0,0-.53-.26c-.31-.18-.7-.36-1.15-.58a22.31,22.31,0,0,1-5.39-3.89,24.87,24.87,0,0,1-3.1-3.72,24.23,24.23,0,0,1-1.55-2.52l.14-.13h0c.26-.27.57-.58.79-.84s.53-.58.75-.84h0a9,9,0,0,0,.76-1c.17-.31.31-.58.48-.85h0a2.88,2.88,0,0,0,.4-1.5,3.41,3.41,0,0,0-.35-1.5h0a1.24,1.24,0,0,0-.14-.36c-.26-.62-.7-1.9-1.19-3.18s-1-2.61-1.28-3.45h0a5.56,5.56,0,0,0-.58-1.2,4.84,4.84,0,0,0-.57-.7,2.21,2.21,0,0,0-1.07-.62,2.75,2.75,0,0,0-.88-.14h-.31c-.18,0-.44,0-.75,0a7.69,7.69,0,0,1-1-.09h-.18a5.31,5.31,0,0,0-1.68.31,5.38,5.38,0,0,0-1.85,1.24h0c-.18.18-.58.53-1,1a11.69,11.69,0,0,0-1.94,2.92,11.93,11.93,0,0,0-1.11,4.82v.45a17.38,17.38,0,0,0,1.68,6.81C1311,916.58,1311.4,917.38,1311.84,918.13Zm.8,1.19" transform="translate(-1233.51 -827.63)" fill="#223455"/>
    <path d="M1325.64,1012.12a92.25,92.25,0,1,0-65.11-27A92.26,92.26,0,0,0,1325.64,1012.12Zm0-175a83,83,0,1,1-58.6,24.28,83,83,0,0,1,58.6-24.28Z" transform="translate(-1233.51 -827.63)" fill="#223455"/>
    <path d="M1291.19,957.94l19.72-6.33a38.23,38.23,0,1,0-15.26-14.68l-6.41,19a1.55,1.55,0,0,0,1,1.94,2.45,2.45,0,0,0,1,.05Zm37.55-69.18a29,29,0,0,1,0,58.08,29.38,29.38,0,0,1-16-4.78,1.57,1.57,0,0,0-1.33-.18l-8.84,2.83,2.83-8.44a1.48,1.48,0,0,0-.22-1.42,29.1,29.1,0,0,1,23.53-46.09Z" transform="translate(-1233.51 -827.63)" fill="#223455"/>
  </g>
</svg>
